# xmcd
#
# Track frame offsets:
#	150
#	14967
#	29682
#	49399
#	65997
#	80982
#	95875
#	113433
#	127856
#
# Disc length: 1910 seconds
#
# Revision: 1
# Processed by: cddbd v1.5.2PL0 Copyright (c) Steve Scherf et al.
# Submitted via: EasyCDDAExtractor 12.0.1.1
#
DISCID=89077409
DTITLE=Bellamy Brothers - Greatest Hits
DYEAR=1982
DGENRE=Country
TTITLE0=Let Your Love Flow
TTITLE1=If I Said You Have A Beautiful Body (Would You Hold It Against Me)
TTITLE2=You Ain't Just Whistlin' Dixie
TTITLE3=Sugar Daddy
TTITLE4=Dancin' Cowboys
TTITLE5=Lovers Live Longer
TTITLE6=For All The Wrong Reasons
TTITLE7=Get Into Reggae Cowboy
TTITLE8=Redneck Girl
EXTD=
EXTT0=
EXTT1=
EXTT2=
EXTT3=
EXTT4=
EXTT5=
EXTT6=
EXTT7=
EXTT8=
PLAYORDER=
